<svg xmlns="http://www.w3.org/2000/svg" width="1268" height="1134" viewBox="0 0 1268 1134" font-family="'Segoe UI',system-ui,-apple-system,Helvetica,Arial,sans-serif">
<rect width="1268" height="1134" fill="#ffffff"/>
<rect x="28" y="28" width="1212" height="3" fill="#041E42"/>
<text x="28" y="54" font-family="'Cascadia Mono',Consolas,'SF Mono',Menlo,monospace" font-size="10.5" letter-spacing="1.6" fill="#57534e">OECS KTIP &#183; ACCESS CONTROL REGISTER</text>
<text x="28" y="90" font-family="Georgia,'Times New Roman',serif" font-size="30" font-weight="600" fill="#041E42">Who can do what</text>
<text x="28" y="114" font-size="13" fill="#57534e">12 roles &#215; 24 permissions. Enforced in PostgreSQL by has_permission(); the app only decides what to show.</text>
<g transform="translate(366,254) rotate(-52)">
<text x="0" y="0" font-size="11.5" font-weight="600" fill="#041E42">Super Admin</text>
<text x="0" y="12" font-family="'Cascadia Mono',Consolas,'SF Mono',Menlo,monospace" font-size="8" fill="#9c9691">super_admin</text>
</g>
<rect x="334" y="259" width="64" height="2.5" fill="#041E42" opacity="0.55"/>
<g transform="translate(442,254) rotate(-52)">
<text x="0" y="0" font-size="11.5" font-weight="600" fill="#041E42">Safety Admin</text>
<text x="0" y="12" font-family="'Cascadia Mono',Consolas,'SF Mono',Menlo,monospace" font-size="8" fill="#9c9691">safety_admin</text>
</g>
<rect x="410" y="259" width="64" height="2.5" fill="#041E42" opacity="0.55"/>
<g transform="translate(518,254) rotate(-52)">
<text x="0" y="0" font-size="11.5" font-weight="600" fill="#041E42">Investor</text>
<text x="0" y="12" font-family="'Cascadia Mono',Consolas,'SF Mono',Menlo,monospace" font-size="8" fill="#9c9691">investor</text>
</g>
<rect x="486" y="259" width="64" height="2.5" fill="#2A5788" opacity="0.55"/>
<g transform="translate(594,254) rotate(-52)">
<text x="0" y="0" font-size="11.5" font-weight="600" fill="#041E42">Verified SME</text>
<text x="0" y="12" font-family="'Cascadia Mono',Consolas,'SF Mono',Menlo,monospace" font-size="8" fill="#9c9691">sme</text>
</g>
<rect x="562" y="259" width="64" height="2.5" fill="#2A5788" opacity="0.55"/>
<g transform="translate(670,254) rotate(-52)">
<text x="0" y="0" font-size="11.5" font-weight="600" fill="#041E42">Private Sector</text>
<text x="0" y="12" font-family="'Cascadia Mono',Consolas,'SF Mono',Menlo,monospace" font-size="8" fill="#9c9691">private_sector</text>
</g>
<rect x="638" y="259" width="64" height="2.5" fill="#2A5788" opacity="0.55"/>
<g transform="translate(746,254) rotate(-52)">
<text x="0" y="0" font-size="11.5" font-weight="600" fill="#041E42">Educational Partner</text>
<text x="0" y="12" font-family="'Cascadia Mono',Consolas,'SF Mono',Menlo,monospace" font-size="8" fill="#9c9691">educational_partner</text>
</g>
<rect x="714" y="259" width="64" height="2.5" fill="#2A5788" opacity="0.55"/>
<g transform="translate(822,254) rotate(-52)">
<text x="0" y="0" font-size="11.5" font-weight="600" fill="#041E42">Chamber of Commerce</text>
<text x="0" y="12" font-family="'Cascadia Mono',Consolas,'SF Mono',Menlo,monospace" font-size="8" fill="#9c9691">chamber_admin</text>
</g>
<rect x="790" y="259" width="64" height="2.5" fill="#2A5788" opacity="0.55"/>
<g transform="translate(898,254) rotate(-52)">
<text x="0" y="0" font-size="11.5" font-weight="600" fill="#041E42">Entrepreneur</text>
<text x="0" y="12" font-family="'Cascadia Mono',Consolas,'SF Mono',Menlo,monospace" font-size="8" fill="#9c9691">entrepreneur</text>
</g>
<rect x="866" y="259" width="64" height="2.5" fill="#5E8A00" opacity="0.55"/>
<g transform="translate(974,254) rotate(-52)">
<text x="0" y="0" font-size="11.5" font-weight="600" fill="#041E42">Faculty</text>
<text x="0" y="12" font-family="'Cascadia Mono',Consolas,'SF Mono',Menlo,monospace" font-size="8" fill="#9c9691">faculty</text>
</g>
<rect x="942" y="259" width="64" height="2.5" fill="#5E8A00" opacity="0.55"/>
<g transform="translate(1050,254) rotate(-52)">
<text x="0" y="0" font-size="11.5" font-weight="600" fill="#041E42">Researcher</text>
<text x="0" y="12" font-family="'Cascadia Mono',Consolas,'SF Mono',Menlo,monospace" font-size="8" fill="#9c9691">researcher</text>
</g>
<rect x="1018" y="259" width="64" height="2.5" fill="#5E8A00" opacity="0.55"/>
<g transform="translate(1126,254) rotate(-52)">
<text x="0" y="0" font-size="11.5" font-weight="600" fill="#041E42">Mentor</text>
<text x="0" y="12" font-family="'Cascadia Mono',Consolas,'SF Mono',Menlo,monospace" font-size="8" fill="#9c9691">mentor</text>
</g>
<rect x="1094" y="259" width="64" height="2.5" fill="#5E8A00" opacity="0.55"/>
<g transform="translate(1202,254) rotate(-52)">
<text x="0" y="0" font-size="11.5" font-weight="600" fill="#041E42">Student</text>
<text x="0" y="12" font-family="'Cascadia Mono',Consolas,'SF Mono',Menlo,monospace" font-size="8" fill="#9c9691">student</text>
</g>
<rect x="1170" y="259" width="64" height="2.5" fill="#5E8A00" opacity="0.55"/>
<text x="28" y="252" font-family="'Cascadia Mono',Consolas,'SF Mono',Menlo,monospace" font-size="9.5" letter-spacing="1.4" fill="#57534e">PERMISSION</text>
<line x1="28" y1="264" x2="1240" y2="264" stroke="#041E42" stroke-width="2"/>
<rect x="28" y="264" width="1212" height="24" fill="#fafaf7"/>
<text x="38" y="280" font-family="'Cascadia Mono',Consolas,'SF Mono',Menlo,monospace" font-size="9.5" letter-spacing="1.3" font-weight="700" fill="#57534e">PLATFORM</text>
<line x1="28" y1="288" x2="1240" y2="288" stroke="#d6d3d1" stroke-width="1"/>
<text x="38" y="300" font-size="11.5" fill="#1c1917">Manage platform</text>
<text x="38" y="311" font-family="'Cascadia Mono',Consolas,'SF Mono',Menlo,monospace" font-size="9" fill="#2A5788">org:manage</text>
<circle cx="366" cy="301.5" r="5" fill="#5E8A00"/>
<circle cx="442" cy="301.5" r="1.6" fill="#9c9691"/>
<circle cx="518" cy="301.5" r="1.6" fill="#9c9691"/>
<circle cx="594" cy="301.5" r="1.6" fill="#9c9691"/>
<circle cx="670" cy="301.5" r="1.6" fill="#9c9691"/>
<circle cx="746" cy="301.5" r="1.6" fill="#9c9691"/>
<circle cx="822" cy="301.5" r="1.6" fill="#9c9691"/>
<circle cx="898" cy="301.5" r="1.6" fill="#9c9691"/>
<circle cx="974" cy="301.5" r="1.6" fill="#9c9691"/>
<circle cx="1050" cy="301.5" r="1.6" fill="#9c9691"/>
<circle cx="1126" cy="301.5" r="1.6" fill="#9c9691"/>
<circle cx="1202" cy="301.5" r="1.6" fill="#9c9691"/>
<line x1="28" y1="315" x2="1240" y2="315" stroke="#e7e5e4" stroke-width="0.8"/>
<text x="38" y="327" font-size="11.5" fill="#1c1917">Manage member accounts</text>
<text x="38" y="338" font-family="'Cascadia Mono',Consolas,'SF Mono',Menlo,monospace" font-size="9" fill="#2A5788">members:manage</text>
<circle cx="366" cy="328.5" r="5" fill="#5E8A00"/>
<circle cx="442" cy="328.5" r="1.6" fill="#9c9691"/>
<circle cx="518" cy="328.5" r="1.6" fill="#9c9691"/>
<circle cx="594" cy="328.5" r="1.6" fill="#9c9691"/>
<circle cx="670" cy="328.5" r="1.6" fill="#9c9691"/>
<circle cx="746" cy="328.5" r="1.6" fill="#9c9691"/>
<circle cx="822" cy="328.5" r="1.6" fill="#9c9691"/>
<circle cx="898" cy="328.5" r="1.6" fill="#9c9691"/>
<circle cx="974" cy="328.5" r="1.6" fill="#9c9691"/>
<circle cx="1050" cy="328.5" r="1.6" fill="#9c9691"/>
<circle cx="1126" cy="328.5" r="1.6" fill="#9c9691"/>
<circle cx="1202" cy="328.5" r="1.6" fill="#9c9691"/>
<line x1="28" y1="342" x2="1240" y2="342" stroke="#e7e5e4" stroke-width="0.8"/>
<text x="38" y="354" font-size="11.5" fill="#1c1917">Manage roles &amp; permissions</text>
<text x="38" y="365" font-family="'Cascadia Mono',Consolas,'SF Mono',Menlo,monospace" font-size="9" fill="#2A5788">role:manage</text>
<circle cx="366" cy="355.5" r="5" fill="#5E8A00"/>
<circle cx="442" cy="355.5" r="1.6" fill="#9c9691"/>
<circle cx="518" cy="355.5" r="1.6" fill="#9c9691"/>
<circle cx="594" cy="355.5" r="1.6" fill="#9c9691"/>
<circle cx="670" cy="355.5" r="1.6" fill="#9c9691"/>
<circle cx="746" cy="355.5" r="1.6" fill="#9c9691"/>
<circle cx="822" cy="355.5" r="1.6" fill="#9c9691"/>
<circle cx="898" cy="355.5" r="1.6" fill="#9c9691"/>
<circle cx="974" cy="355.5" r="1.6" fill="#9c9691"/>
<circle cx="1050" cy="355.5" r="1.6" fill="#9c9691"/>
<circle cx="1126" cy="355.5" r="1.6" fill="#9c9691"/>
<circle cx="1202" cy="355.5" r="1.6" fill="#9c9691"/>
<line x1="28" y1="369" x2="1240" y2="369" stroke="#e7e5e4" stroke-width="0.8"/>
<text x="38" y="381" font-size="11.5" fill="#1c1917">View audit logs</text>
<text x="38" y="392" font-family="'Cascadia Mono',Consolas,'SF Mono',Menlo,monospace" font-size="9" fill="#2A5788">audit:view</text>
<circle cx="366" cy="382.5" r="5" fill="#5E8A00"/>
<circle cx="442" cy="382.5" r="5" fill="#5E8A00"/>
<circle cx="518" cy="382.5" r="1.6" fill="#9c9691"/>
<circle cx="594" cy="382.5" r="1.6" fill="#9c9691"/>
<circle cx="670" cy="382.5" r="1.6" fill="#9c9691"/>
<circle cx="746" cy="382.5" r="1.6" fill="#9c9691"/>
<circle cx="822" cy="382.5" r="1.6" fill="#9c9691"/>
<circle cx="898" cy="382.5" r="1.6" fill="#9c9691"/>
<circle cx="974" cy="382.5" r="1.6" fill="#9c9691"/>
<circle cx="1050" cy="382.5" r="1.6" fill="#9c9691"/>
<circle cx="1126" cy="382.5" r="1.6" fill="#9c9691"/>
<circle cx="1202" cy="382.5" r="1.6" fill="#9c9691"/>
<line x1="28" y1="396" x2="1240" y2="396" stroke="#e7e5e4" stroke-width="0.8"/>
<rect x="28" y="396" width="1212" height="24" fill="#fafaf7"/>
<text x="38" y="412" font-family="'Cascadia Mono',Consolas,'SF Mono',Menlo,monospace" font-size="9.5" letter-spacing="1.3" font-weight="700" fill="#57534e">MODERATION &amp; SAFETY</text>
<line x1="28" y1="420" x2="1240" y2="420" stroke="#d6d3d1" stroke-width="1"/>
<text x="38" y="432" font-size="11.5" fill="#1c1917">View moderation queue</text>
<text x="38" y="443" font-family="'Cascadia Mono',Consolas,'SF Mono',Menlo,monospace" font-size="9" fill="#2A5788">moderation:view</text>
<circle cx="366" cy="433.5" r="5" fill="#5E8A00"/>
<circle cx="442" cy="433.5" r="5" fill="#5E8A00"/>
<circle cx="518" cy="433.5" r="1.6" fill="#9c9691"/>
<circle cx="594" cy="433.5" r="1.6" fill="#9c9691"/>
<circle cx="670" cy="433.5" r="1.6" fill="#9c9691"/>
<circle cx="746" cy="433.5" r="1.6" fill="#9c9691"/>
<circle cx="822" cy="433.5" r="1.6" fill="#9c9691"/>
<circle cx="898" cy="433.5" r="1.6" fill="#9c9691"/>
<circle cx="974" cy="433.5" r="1.6" fill="#9c9691"/>
<circle cx="1050" cy="433.5" r="1.6" fill="#9c9691"/>
<circle cx="1126" cy="433.5" r="1.6" fill="#9c9691"/>
<circle cx="1202" cy="433.5" r="1.6" fill="#9c9691"/>
<line x1="28" y1="447" x2="1240" y2="447" stroke="#e7e5e4" stroke-width="0.8"/>
<text x="38" y="459" font-size="11.5" fill="#1c1917">Action reported content</text>
<text x="38" y="470" font-family="'Cascadia Mono',Consolas,'SF Mono',Menlo,monospace" font-size="9" fill="#2A5788">moderation:action</text>
<circle cx="366" cy="460.5" r="5" fill="#5E8A00"/>
<circle cx="442" cy="460.5" r="5" fill="#5E8A00"/>
<circle cx="518" cy="460.5" r="1.6" fill="#9c9691"/>
<circle cx="594" cy="460.5" r="1.6" fill="#9c9691"/>
<circle cx="670" cy="460.5" r="1.6" fill="#9c9691"/>
<circle cx="746" cy="460.5" r="1.6" fill="#9c9691"/>
<circle cx="822" cy="460.5" r="1.6" fill="#9c9691"/>
<circle cx="898" cy="460.5" r="1.6" fill="#9c9691"/>
<circle cx="974" cy="460.5" r="1.6" fill="#9c9691"/>
<circle cx="1050" cy="460.5" r="1.6" fill="#9c9691"/>
<circle cx="1126" cy="460.5" r="1.6" fill="#9c9691"/>
<rect x="1197.5" y="456" width="9" height="9" rx="1" fill="#806000"/>
<line x1="28" y1="474" x2="1240" y2="474" stroke="#e7e5e4" stroke-width="0.8"/>
<text x="38" y="486" font-size="11.5" fill="#1c1917">Suspend &amp; escalate</text>
<text x="38" y="497" font-family="'Cascadia Mono',Consolas,'SF Mono',Menlo,monospace" font-size="9" fill="#2A5788">moderation:escalate</text>
<circle cx="366" cy="487.5" r="5" fill="#5E8A00"/>
<circle cx="442" cy="487.5" r="5" fill="#5E8A00"/>
<circle cx="518" cy="487.5" r="1.6" fill="#9c9691"/>
<circle cx="594" cy="487.5" r="1.6" fill="#9c9691"/>
<circle cx="670" cy="487.5" r="1.6" fill="#9c9691"/>
<circle cx="746" cy="487.5" r="1.6" fill="#9c9691"/>
<circle cx="822" cy="487.5" r="1.6" fill="#9c9691"/>
<circle cx="898" cy="487.5" r="1.6" fill="#9c9691"/>
<circle cx="974" cy="487.5" r="1.6" fill="#9c9691"/>
<circle cx="1050" cy="487.5" r="1.6" fill="#9c9691"/>
<circle cx="1126" cy="487.5" r="1.6" fill="#9c9691"/>
<rect x="1197.5" y="483" width="9" height="9" rx="1" fill="#806000"/>
<line x1="28" y1="501" x2="1240" y2="501" stroke="#e7e5e4" stroke-width="0.8"/>
<rect x="28" y="501" width="1212" height="24" fill="#fafaf7"/>
<text x="38" y="517" font-family="'Cascadia Mono',Consolas,'SF Mono',Menlo,monospace" font-size="9.5" letter-spacing="1.3" font-weight="700" fill="#57534e">GRANTS &amp; FUNDING</text>
<line x1="28" y1="525" x2="1240" y2="525" stroke="#d6d3d1" stroke-width="1"/>
<text x="38" y="537" font-size="11.5" fill="#1c1917">Browse grants</text>
<text x="38" y="548" font-family="'Cascadia Mono',Consolas,'SF Mono',Menlo,monospace" font-size="9" fill="#2A5788">grant:view</text>
<circle cx="366" cy="538.5" r="5" fill="#5E8A00"/>
<circle cx="442" cy="538.5" r="5" fill="#5E8A00"/>
<circle cx="518" cy="538.5" r="5" fill="#5E8A00"/>
<circle cx="594" cy="538.5" r="5" fill="#5E8A00"/>
<circle cx="670" cy="538.5" r="5" fill="#5E8A00"/>
<circle cx="746" cy="538.5" r="5" fill="#5E8A00"/>
<circle cx="822" cy="538.5" r="5" fill="#5E8A00"/>
<circle cx="898" cy="538.5" r="5" fill="#5E8A00"/>
<circle cx="974" cy="538.5" r="5" fill="#5E8A00"/>
<circle cx="1050" cy="538.5" r="5" fill="#5E8A00"/>
<circle cx="1126" cy="538.5" r="5" fill="#5E8A00"/>
<circle cx="1202" cy="538.5" r="5" fill="#5E8A00"/>
<line x1="28" y1="552" x2="1240" y2="552" stroke="#e7e5e4" stroke-width="0.8"/>
<text x="38" y="564" font-size="11.5" fill="#1c1917">Apply for grants</text>
<text x="38" y="575" font-family="'Cascadia Mono',Consolas,'SF Mono',Menlo,monospace" font-size="9" fill="#2A5788">grant:apply</text>
<circle cx="366" cy="565.5" r="5" fill="#5E8A00"/>
<circle cx="442" cy="565.5" r="1.6" fill="#9c9691"/>
<circle cx="518" cy="565.5" r="1.6" fill="#9c9691"/>
<circle cx="594" cy="565.5" r="5" fill="#5E8A00"/>
<circle cx="670" cy="565.5" r="1.6" fill="#9c9691"/>
<circle cx="746" cy="565.5" r="5" fill="#5E8A00"/>
<circle cx="822" cy="565.5" r="1.6" fill="#9c9691"/>
<circle cx="898" cy="565.5" r="5" fill="#5E8A00"/>
<circle cx="974" cy="565.5" r="5" fill="#5E8A00"/>
<circle cx="1050" cy="565.5" r="5" fill="#5E8A00"/>
<circle cx="1126" cy="565.5" r="1.6" fill="#9c9691"/>
<rect x="1197.5" y="561" width="9" height="9" rx="1" fill="#806000"/>
<line x1="28" y1="579" x2="1240" y2="579" stroke="#e7e5e4" stroke-width="0.8"/>
<text x="38" y="591" font-size="11.5" fill="#1c1917">Sponsor a student application</text>
<text x="38" y="602" font-family="'Cascadia Mono',Consolas,'SF Mono',Menlo,monospace" font-size="9" fill="#2A5788">grant:sponsor</text>
<circle cx="366" cy="592.5" r="5" fill="#5E8A00"/>
<circle cx="442" cy="592.5" r="1.6" fill="#9c9691"/>
<circle cx="518" cy="592.5" r="1.6" fill="#9c9691"/>
<circle cx="594" cy="592.5" r="1.6" fill="#9c9691"/>
<circle cx="670" cy="592.5" r="1.6" fill="#9c9691"/>
<circle cx="746" cy="592.5" r="5" fill="#5E8A00"/>
<circle cx="822" cy="592.5" r="1.6" fill="#9c9691"/>
<circle cx="898" cy="592.5" r="1.6" fill="#9c9691"/>
<circle cx="974" cy="592.5" r="5" fill="#5E8A00"/>
<circle cx="1050" cy="592.5" r="1.6" fill="#9c9691"/>
<circle cx="1126" cy="592.5" r="1.6" fill="#9c9691"/>
<circle cx="1202" cy="592.5" r="1.6" fill="#9c9691"/>
<line x1="28" y1="606" x2="1240" y2="606" stroke="#e7e5e4" stroke-width="0.8"/>
<text x="38" y="618" font-size="11.5" fill="#1c1917">Publish funding calls</text>
<text x="38" y="629" font-family="'Cascadia Mono',Consolas,'SF Mono',Menlo,monospace" font-size="9" fill="#2A5788">grant:post</text>
<circle cx="366" cy="619.5" r="5" fill="#5E8A00"/>
<circle cx="442" cy="619.5" r="1.6" fill="#9c9691"/>
<circle cx="518" cy="619.5" r="5" fill="#5E8A00"/>
<circle cx="594" cy="619.5" r="1.6" fill="#9c9691"/>
<circle cx="670" cy="619.5" r="1.6" fill="#9c9691"/>
<circle cx="746" cy="619.5" r="1.6" fill="#9c9691"/>
<circle cx="822" cy="619.5" r="1.6" fill="#9c9691"/>
<circle cx="898" cy="619.5" r="1.6" fill="#9c9691"/>
<circle cx="974" cy="619.5" r="1.6" fill="#9c9691"/>
<circle cx="1050" cy="619.5" r="1.6" fill="#9c9691"/>
<circle cx="1126" cy="619.5" r="1.6" fill="#9c9691"/>
<circle cx="1202" cy="619.5" r="1.6" fill="#9c9691"/>
<line x1="28" y1="633" x2="1240" y2="633" stroke="#e7e5e4" stroke-width="0.8"/>
<text x="38" y="645" font-size="11.5" fill="#1c1917">Administer awards</text>
<text x="38" y="656" font-family="'Cascadia Mono',Consolas,'SF Mono',Menlo,monospace" font-size="9" fill="#2A5788">grant:manage_funds</text>
<circle cx="366" cy="646.5" r="5" fill="#5E8A00"/>
<circle cx="442" cy="646.5" r="1.6" fill="#9c9691"/>
<circle cx="518" cy="646.5" r="5" fill="#5E8A00"/>
<circle cx="594" cy="646.5" r="1.6" fill="#9c9691"/>
<circle cx="670" cy="646.5" r="1.6" fill="#9c9691"/>
<circle cx="746" cy="646.5" r="1.6" fill="#9c9691"/>
<circle cx="822" cy="646.5" r="1.6" fill="#9c9691"/>
<circle cx="898" cy="646.5" r="1.6" fill="#9c9691"/>
<circle cx="974" cy="646.5" r="1.6" fill="#9c9691"/>
<circle cx="1050" cy="646.5" r="1.6" fill="#9c9691"/>
<circle cx="1126" cy="646.5" r="1.6" fill="#9c9691"/>
<rect x="1197.5" y="642" width="9" height="9" rx="1" fill="#806000"/>
<line x1="28" y1="660" x2="1240" y2="660" stroke="#e7e5e4" stroke-width="0.8"/>
<rect x="28" y="660" width="1212" height="24" fill="#fafaf7"/>
<text x="38" y="676" font-family="'Cascadia Mono',Consolas,'SF Mono',Menlo,monospace" font-size="9.5" letter-spacing="1.3" font-weight="700" fill="#57534e">PROJECTS &amp; EVENTS</text>
<line x1="28" y1="684" x2="1240" y2="684" stroke="#d6d3d1" stroke-width="1"/>
<text x="38" y="696" font-size="11.5" fill="#1c1917">Publish a project</text>
<text x="38" y="707" font-family="'Cascadia Mono',Consolas,'SF Mono',Menlo,monospace" font-size="9" fill="#2A5788">project:create</text>
<circle cx="366" cy="697.5" r="5" fill="#5E8A00"/>
<circle cx="442" cy="697.5" r="1.6" fill="#9c9691"/>
<circle cx="518" cy="697.5" r="1.6" fill="#9c9691"/>
<circle cx="594" cy="697.5" r="5" fill="#5E8A00"/>
<circle cx="670" cy="697.5" r="5" fill="#5E8A00"/>
<circle cx="746" cy="697.5" r="5" fill="#5E8A00"/>
<circle cx="822" cy="697.5" r="1.6" fill="#9c9691"/>
<circle cx="898" cy="697.5" r="5" fill="#5E8A00"/>
<circle cx="974" cy="697.5" r="5" fill="#5E8A00"/>
<circle cx="1050" cy="697.5" r="5" fill="#5E8A00"/>
<circle cx="1126" cy="697.5" r="5" fill="#5E8A00"/>
<circle cx="1202" cy="697.5" r="5" fill="#5E8A00"/>
<line x1="28" y1="711" x2="1240" y2="711" stroke="#e7e5e4" stroke-width="0.8"/>
<text x="38" y="723" font-size="11.5" fill="#1c1917">Manage own projects</text>
<text x="38" y="734" font-family="'Cascadia Mono',Consolas,'SF Mono',Menlo,monospace" font-size="9" fill="#2A5788">project:manage</text>
<circle cx="366" cy="724.5" r="5" fill="#5E8A00"/>
<circle cx="442" cy="724.5" r="1.6" fill="#9c9691"/>
<circle cx="518" cy="724.5" r="1.6" fill="#9c9691"/>
<circle cx="594" cy="724.5" r="5" fill="#5E8A00"/>
<circle cx="670" cy="724.5" r="5" fill="#5E8A00"/>
<circle cx="746" cy="724.5" r="5" fill="#5E8A00"/>
<circle cx="822" cy="724.5" r="1.6" fill="#9c9691"/>
<circle cx="898" cy="724.5" r="5" fill="#5E8A00"/>
<circle cx="974" cy="724.5" r="5" fill="#5E8A00"/>
<circle cx="1050" cy="724.5" r="5" fill="#5E8A00"/>
<circle cx="1126" cy="724.5" r="5" fill="#5E8A00"/>
<circle cx="1202" cy="724.5" r="5" fill="#5E8A00"/>
<line x1="28" y1="738" x2="1240" y2="738" stroke="#e7e5e4" stroke-width="0.8"/>
<text x="38" y="750" font-size="11.5" fill="#1c1917">Publish an event</text>
<rect x="141.6" y="741.5" width="26" height="11" rx="1.5" fill="none" stroke="#2A5788" stroke-width="0.8"/>
<text x="145.6" y="750" font-family="'Cascadia Mono',Consolas,'SF Mono',Menlo,monospace" font-size="7.5" letter-spacing="0.5" fill="#2A5788">NEW</text>
<text x="38" y="761" font-family="'Cascadia Mono',Consolas,'SF Mono',Menlo,monospace" font-size="9" fill="#2A5788">event:create</text>
<circle cx="366" cy="751.5" r="5" fill="#5E8A00"/>
<circle cx="442" cy="751.5" r="1.6" fill="#9c9691"/>
<circle cx="518" cy="751.5" r="1.6" fill="#9c9691"/>
<circle cx="594" cy="751.5" r="5" fill="#5E8A00"/>
<circle cx="670" cy="751.5" r="5" fill="#5E8A00"/>
<circle cx="746" cy="751.5" r="5" fill="#5E8A00"/>
<circle cx="822" cy="751.5" r="1.6" fill="#9c9691"/>
<circle cx="898" cy="751.5" r="5" fill="#5E8A00"/>
<circle cx="974" cy="751.5" r="5" fill="#5E8A00"/>
<circle cx="1050" cy="751.5" r="5" fill="#5E8A00"/>
<circle cx="1126" cy="751.5" r="5" fill="#5E8A00"/>
<circle cx="1202" cy="751.5" r="5" fill="#5E8A00"/>
<line x1="28" y1="765" x2="1240" y2="765" stroke="#e7e5e4" stroke-width="0.8"/>
<rect x="28" y="765" width="1212" height="24" fill="#fafaf7"/>
<text x="38" y="781" font-family="'Cascadia Mono',Consolas,'SF Mono',Menlo,monospace" font-size="9.5" letter-spacing="1.3" font-weight="700" fill="#57534e">COMMUNITY</text>
<line x1="28" y1="789" x2="1240" y2="789" stroke="#d6d3d1" stroke-width="1"/>
<text x="38" y="801" font-size="11.5" fill="#1c1917">Start forum discussions</text>
<text x="38" y="812" font-family="'Cascadia Mono',Consolas,'SF Mono',Menlo,monospace" font-size="9" fill="#2A5788">forum:post</text>
<circle cx="366" cy="802.5" r="5" fill="#5E8A00"/>
<circle cx="442" cy="802.5" r="5" fill="#5E8A00"/>
<circle cx="518" cy="802.5" r="5" fill="#5E8A00"/>
<circle cx="594" cy="802.5" r="5" fill="#5E8A00"/>
<circle cx="670" cy="802.5" r="5" fill="#5E8A00"/>
<circle cx="746" cy="802.5" r="5" fill="#5E8A00"/>
<circle cx="822" cy="802.5" r="5" fill="#5E8A00"/>
<circle cx="898" cy="802.5" r="5" fill="#5E8A00"/>
<circle cx="974" cy="802.5" r="5" fill="#5E8A00"/>
<circle cx="1050" cy="802.5" r="5" fill="#5E8A00"/>
<circle cx="1126" cy="802.5" r="5" fill="#5E8A00"/>
<circle cx="1202" cy="802.5" r="5" fill="#5E8A00"/>
<line x1="28" y1="816" x2="1240" y2="816" stroke="#e7e5e4" stroke-width="0.8"/>
<text x="38" y="828" font-size="11.5" fill="#1c1917">Reply &amp; comment</text>
<text x="38" y="839" font-family="'Cascadia Mono',Consolas,'SF Mono',Menlo,monospace" font-size="9" fill="#2A5788">forum:comment</text>
<circle cx="366" cy="829.5" r="5" fill="#5E8A00"/>
<circle cx="442" cy="829.5" r="5" fill="#5E8A00"/>
<circle cx="518" cy="829.5" r="5" fill="#5E8A00"/>
<circle cx="594" cy="829.5" r="5" fill="#5E8A00"/>
<circle cx="670" cy="829.5" r="5" fill="#5E8A00"/>
<circle cx="746" cy="829.5" r="5" fill="#5E8A00"/>
<circle cx="822" cy="829.5" r="5" fill="#5E8A00"/>
<circle cx="898" cy="829.5" r="5" fill="#5E8A00"/>
<circle cx="974" cy="829.5" r="5" fill="#5E8A00"/>
<circle cx="1050" cy="829.5" r="5" fill="#5E8A00"/>
<circle cx="1126" cy="829.5" r="5" fill="#5E8A00"/>
<circle cx="1202" cy="829.5" r="5" fill="#5E8A00"/>
<line x1="28" y1="843" x2="1240" y2="843" stroke="#e7e5e4" stroke-width="0.8"/>
<text x="38" y="855" font-size="11.5" fill="#1c1917">Offer mentorship</text>
<text x="38" y="866" font-family="'Cascadia Mono',Consolas,'SF Mono',Menlo,monospace" font-size="9" fill="#2A5788">mentorship:offer</text>
<circle cx="366" cy="856.5" r="5" fill="#5E8A00"/>
<circle cx="442" cy="856.5" r="1.6" fill="#9c9691"/>
<circle cx="518" cy="856.5" r="5" fill="#5E8A00"/>
<circle cx="594" cy="856.5" r="5" fill="#5E8A00"/>
<circle cx="670" cy="856.5" r="1.6" fill="#9c9691"/>
<circle cx="746" cy="856.5" r="1.6" fill="#9c9691"/>
<circle cx="822" cy="856.5" r="1.6" fill="#9c9691"/>
<circle cx="898" cy="856.5" r="1.6" fill="#9c9691"/>
<circle cx="974" cy="856.5" r="5" fill="#5E8A00"/>
<circle cx="1050" cy="856.5" r="1.6" fill="#9c9691"/>
<circle cx="1126" cy="856.5" r="5" fill="#5E8A00"/>
<circle cx="1202" cy="856.5" r="1.6" fill="#9c9691"/>
<line x1="28" y1="870" x2="1240" y2="870" stroke="#e7e5e4" stroke-width="0.8"/>
<rect x="28" y="870" width="1212" height="24" fill="#fafaf7"/>
<text x="38" y="886" font-family="'Cascadia Mono',Consolas,'SF Mono',Menlo,monospace" font-size="9.5" letter-spacing="1.3" font-weight="700" fill="#57534e">MESSAGING</text>
<line x1="28" y1="894" x2="1240" y2="894" stroke="#d6d3d1" stroke-width="1"/>
<text x="38" y="906" font-size="11.5" fill="#1c1917">Start a direct message</text>
<text x="38" y="917" font-family="'Cascadia Mono',Consolas,'SF Mono',Menlo,monospace" font-size="9" fill="#2A5788">dm:initiate</text>
<circle cx="366" cy="907.5" r="5" fill="#5E8A00"/>
<circle cx="442" cy="907.5" r="5" fill="#5E8A00"/>
<circle cx="518" cy="907.5" r="5" fill="#5E8A00"/>
<circle cx="594" cy="907.5" r="5" fill="#5E8A00"/>
<circle cx="670" cy="907.5" r="5" fill="#5E8A00"/>
<circle cx="746" cy="907.5" r="5" fill="#5E8A00"/>
<circle cx="822" cy="907.5" r="5" fill="#5E8A00"/>
<circle cx="898" cy="907.5" r="5" fill="#5E8A00"/>
<circle cx="974" cy="907.5" r="5" fill="#5E8A00"/>
<circle cx="1050" cy="907.5" r="5" fill="#5E8A00"/>
<circle cx="1126" cy="907.5" r="5" fill="#5E8A00"/>
<rect x="1197.5" y="903" width="9" height="9" rx="1" fill="#806000"/>
<line x1="28" y1="921" x2="1240" y2="921" stroke="#e7e5e4" stroke-width="0.8"/>
<text x="38" y="933" font-size="11.5" fill="#1c1917">Receive messages</text>
<text x="38" y="944" font-family="'Cascadia Mono',Consolas,'SF Mono',Menlo,monospace" font-size="9" fill="#2A5788">dm:receive</text>
<circle cx="366" cy="934.5" r="5" fill="#5E8A00"/>
<circle cx="442" cy="934.5" r="5" fill="#5E8A00"/>
<circle cx="518" cy="934.5" r="5" fill="#5E8A00"/>
<circle cx="594" cy="934.5" r="5" fill="#5E8A00"/>
<circle cx="670" cy="934.5" r="5" fill="#5E8A00"/>
<circle cx="746" cy="934.5" r="5" fill="#5E8A00"/>
<circle cx="822" cy="934.5" r="5" fill="#5E8A00"/>
<circle cx="898" cy="934.5" r="5" fill="#5E8A00"/>
<circle cx="974" cy="934.5" r="5" fill="#5E8A00"/>
<circle cx="1050" cy="934.5" r="5" fill="#5E8A00"/>
<circle cx="1126" cy="934.5" r="5" fill="#5E8A00"/>
<circle cx="1202" cy="934.5" r="5" fill="#5E8A00"/>
<line x1="28" y1="948" x2="1240" y2="948" stroke="#e7e5e4" stroke-width="0.8"/>
<text x="38" y="960" font-size="11.5" fill="#1c1917">Supervise student channels</text>
<text x="38" y="971" font-family="'Cascadia Mono',Consolas,'SF Mono',Menlo,monospace" font-size="9" fill="#2A5788">dm:supervise</text>
<circle cx="366" cy="961.5" r="5" fill="#5E8A00"/>
<circle cx="442" cy="961.5" r="5" fill="#5E8A00"/>
<circle cx="518" cy="961.5" r="1.6" fill="#9c9691"/>
<circle cx="594" cy="961.5" r="1.6" fill="#9c9691"/>
<circle cx="670" cy="961.5" r="1.6" fill="#9c9691"/>
<circle cx="746" cy="961.5" r="5" fill="#5E8A00"/>
<circle cx="822" cy="961.5" r="1.6" fill="#9c9691"/>
<circle cx="898" cy="961.5" r="1.6" fill="#9c9691"/>
<circle cx="974" cy="961.5" r="5" fill="#5E8A00"/>
<circle cx="1050" cy="961.5" r="1.6" fill="#9c9691"/>
<circle cx="1126" cy="961.5" r="1.6" fill="#9c9691"/>
<circle cx="1202" cy="961.5" r="1.6" fill="#9c9691"/>
<line x1="28" y1="975" x2="1240" y2="975" stroke="#e7e5e4" stroke-width="0.8"/>
<rect x="28" y="975" width="1212" height="24" fill="#fafaf7"/>
<text x="38" y="991" font-family="'Cascadia Mono',Consolas,'SF Mono',Menlo,monospace" font-size="9.5" letter-spacing="1.3" font-weight="700" fill="#57534e">VERIFICATION</text>
<line x1="28" y1="999" x2="1240" y2="999" stroke="#d6d3d1" stroke-width="1"/>
<text x="38" y="1011" font-size="11.5" fill="#1c1917">Verify businesses</text>
<text x="38" y="1022" font-family="'Cascadia Mono',Consolas,'SF Mono',Menlo,monospace" font-size="9" fill="#2A5788">sme:verify</text>
<circle cx="366" cy="1012.5" r="5" fill="#5E8A00"/>
<circle cx="442" cy="1012.5" r="1.6" fill="#9c9691"/>
<circle cx="518" cy="1012.5" r="1.6" fill="#9c9691"/>
<circle cx="594" cy="1012.5" r="1.6" fill="#9c9691"/>
<circle cx="670" cy="1012.5" r="1.6" fill="#9c9691"/>
<circle cx="746" cy="1012.5" r="1.6" fill="#9c9691"/>
<circle cx="822" cy="1012.5" r="5" fill="#5E8A00"/>
<circle cx="898" cy="1012.5" r="1.6" fill="#9c9691"/>
<circle cx="974" cy="1012.5" r="1.6" fill="#9c9691"/>
<circle cx="1050" cy="1012.5" r="1.6" fill="#9c9691"/>
<circle cx="1126" cy="1012.5" r="1.6" fill="#9c9691"/>
<circle cx="1202" cy="1012.5" r="1.6" fill="#9c9691"/>
<line x1="28" y1="1026" x2="1240" y2="1026" stroke="#e7e5e4" stroke-width="0.8"/>
<text x="38" y="1038" font-size="11.5" fill="#1c1917">Verify schools &amp; chambers</text>
<text x="38" y="1049" font-family="'Cascadia Mono',Consolas,'SF Mono',Menlo,monospace" font-size="9" fill="#2A5788">institution:verify</text>
<circle cx="366" cy="1039.5" r="5" fill="#5E8A00"/>
<circle cx="442" cy="1039.5" r="1.6" fill="#9c9691"/>
<circle cx="518" cy="1039.5" r="1.6" fill="#9c9691"/>
<circle cx="594" cy="1039.5" r="1.6" fill="#9c9691"/>
<circle cx="670" cy="1039.5" r="1.6" fill="#9c9691"/>
<circle cx="746" cy="1039.5" r="1.6" fill="#9c9691"/>
<circle cx="822" cy="1039.5" r="1.6" fill="#9c9691"/>
<circle cx="898" cy="1039.5" r="1.6" fill="#9c9691"/>
<circle cx="974" cy="1039.5" r="1.6" fill="#9c9691"/>
<circle cx="1050" cy="1039.5" r="1.6" fill="#9c9691"/>
<circle cx="1126" cy="1039.5" r="1.6" fill="#9c9691"/>
<circle cx="1202" cy="1039.5" r="1.6" fill="#9c9691"/>
<line x1="28" y1="1053" x2="1240" y2="1053" stroke="#e7e5e4" stroke-width="0.8"/>
<text x="38" y="1065" font-size="11.5" fill="#1c1917">Approve student accounts</text>
<text x="38" y="1076" font-family="'Cascadia Mono',Consolas,'SF Mono',Menlo,monospace" font-size="9" fill="#2A5788">institution:approve_students</text>
<circle cx="366" cy="1066.5" r="5" fill="#5E8A00"/>
<circle cx="442" cy="1066.5" r="1.6" fill="#9c9691"/>
<circle cx="518" cy="1066.5" r="1.6" fill="#9c9691"/>
<circle cx="594" cy="1066.5" r="1.6" fill="#9c9691"/>
<circle cx="670" cy="1066.5" r="1.6" fill="#9c9691"/>
<circle cx="746" cy="1066.5" r="5" fill="#5E8A00"/>
<circle cx="822" cy="1066.5" r="1.6" fill="#9c9691"/>
<circle cx="898" cy="1066.5" r="1.6" fill="#9c9691"/>
<circle cx="974" cy="1066.5" r="5" fill="#5E8A00"/>
<circle cx="1050" cy="1066.5" r="1.6" fill="#9c9691"/>
<circle cx="1126" cy="1066.5" r="1.6" fill="#9c9691"/>
<circle cx="1202" cy="1066.5" r="1.6" fill="#9c9691"/>
<line x1="28" y1="1080" x2="1240" y2="1080" stroke="#e7e5e4" stroke-width="0.8"/>
<line x1="328" y1="242" x2="328" y2="1080" stroke="#d6d3d1" stroke-width="1"/>
<line x1="404" y1="264" x2="404" y2="1080" stroke="#e7e5e4" stroke-width="0.6"/>
<line x1="480" y1="264" x2="480" y2="1080" stroke="#e7e5e4" stroke-width="0.6"/>
<line x1="556" y1="264" x2="556" y2="1080" stroke="#e7e5e4" stroke-width="0.6"/>
<line x1="632" y1="264" x2="632" y2="1080" stroke="#e7e5e4" stroke-width="0.6"/>
<line x1="708" y1="264" x2="708" y2="1080" stroke="#e7e5e4" stroke-width="0.6"/>
<line x1="784" y1="264" x2="784" y2="1080" stroke="#e7e5e4" stroke-width="0.6"/>
<line x1="860" y1="264" x2="860" y2="1080" stroke="#e7e5e4" stroke-width="0.6"/>
<line x1="936" y1="264" x2="936" y2="1080" stroke="#e7e5e4" stroke-width="0.6"/>
<line x1="1012" y1="264" x2="1012" y2="1080" stroke="#e7e5e4" stroke-width="0.6"/>
<line x1="1088" y1="264" x2="1088" y2="1080" stroke="#e7e5e4" stroke-width="0.6"/>
<line x1="1164" y1="264" x2="1164" y2="1080" stroke="#e7e5e4" stroke-width="0.6"/>
<line x1="28" y1="1080" x2="1240" y2="1080" stroke="#041E42" stroke-width="1.5"/>
<circle cx="33" cy="1102" r="5" fill="#5E8A00"/>
<text x="44" y="1106" font-size="11.5" fill="#57534e">Allowed by default</text>
<circle cx="168.8" cy="1102" r="1.6" fill="#9c9691"/>
<text x="179.8" y="1106" font-size="11.5" fill="#57534e">Not allowed</text>
<rect x="257.4" y="1097.5" width="9" height="9" rx="1" fill="#806000"/>
<text x="272.9" y="1106" font-size="11.5" fill="#57534e">Permanently blocked — cannot be switched on by anyone</text>
<text x="1240" y="1106" text-anchor="end" font-family="'Cascadia Mono',Consolas,'SF Mono',Menlo,monospace" font-size="9" fill="#9c9691">migration 090 &#183; 288 cells</text>
</svg>
